<?xml version="1.0" encoding="utf-8"?>
<!-- Generator: Adobe Illustrator 19.1.0, SVG Export Plug-In . SVG Version: 6.00 Build 0)  -->
<svg class="barrel" version="1.1" id="Layer_1" xmlns="http://www.w3.org/2000/svg" xmlns:xlink="http://www.w3.org/1999/xlink" x="0px" y="0px"
	 viewBox="0 0 169.7 204.8" style="enable-background:new 0 0 169.7 204.8;" xml:space="preserve">
<g>
	<path d="M83.8,199.8c-14-0.3-27.9-1.3-41.5-5c-6.7-1.8-13.2-4.3-18.5-9c-2.9-2.5-5.6-5.3-5-9.7c0.2-1.4,0.5-2.9,1.2-4
		c2.2-3.1,3.1-6.5,3-10.4c-0.2-9.8-0.3-19.5-0.4-29.3c0-5.4,0.2-10.9,0.3-16.3c0.1-2.7-0.6-5.1-2-7.4c-3.4-5.6-3.1-8.4,0.7-13.6
		c0.5-0.7,0.9-1.8,0.9-2.7c0.1-8,0.2-16,0.1-24c0-9.7-0.1-19.4-0.3-29.1c0-0.9-0.5-1.9-1.1-2.6c-2.8-2.9-3.8-7.4-1.6-11.3
		c1.4-2.5,3.4-4.9,5.6-6.8c5.3-4.4,11.9-6.3,18.6-7.9c13.3-3.2,26.9-4.1,40.6-4c14.5,0.1,28.9,1,43.1,4.4c7.5,1.8,14.5,4.5,20.3,9.8
		c3.8,3.5,4.7,11.4,1.1,15.3c-1.2,1.2-1.5,2.5-1.5,4.1c-0.1,14.8-0.2,29.6-0.3,44.4c0,1.3,0.1,2.6,0,3.9c-0.1,2.9,0.6,5.3,2.3,7.8
		c3.5,5.2,3.1,9.3-0.1,13.2c-1.4,1.7-1.9,3.6-1.9,5.9c0,15.7-0.1,31.4-0.2,47.1c0,2.7,0.1,5.2,2,7.6c2.6,3.2,3.1,9.1-0.5,13.5
		c-3.9,4.8-9,7.2-14.6,9.1c-8.9,3-18,4.5-27.3,5.3C99.3,198.9,91.5,199.3,83.8,199.8z M139.4,117.7c-0.5,0-0.6-0.1-0.7,0
		c-9,4.1-18.6,5.8-28.3,6.6c-1.1,0.1-1.4,0.6-1.4,1.6c0,3.6,0,7.2-0.1,10.9c-0.1,15.9-0.2,31.8-0.2,47.7c0,1.6-0.3,2.3-2.1,2.4
		c-3.5,0.2-7.1,0.7-10.6,0.8c-16.6,0.8-33.1,0-49.3-3.7c-7.6-1.7-15.2-3.8-21.1-9.4c-0.2-0.2-0.5-0.1-1-0.2c0.4,3.4,2.3,5.6,4.8,7.4
		c3.9,2.9,8.5,4.3,13.2,5.4c11.8,2.9,23.8,4,35.9,4.5c14.6,0.5,29.1,0.2,43.4-2.6c5.7-1.1,11.3-2.7,16.3-5.8c1.1-0.7,1.6-1.6,1.6-3
		c-0.1-18.2-0.2-36.3-0.3-54.5C139.4,123,139.4,120.4,139.4,117.7z M24.7,100.2c0.1,1-0.2,2.2,0.3,3c1,1.6,2.1,3.5,3.7,4.3
		c4.7,2.3,9.4,4.7,14.4,6.1c10.9,3,22.2,4.6,33.5,4.6c12,0,24-1,36-2c7.6-0.6,15.1-2,22.3-4.9c4.6-1.8,4.6-1.8,4.6-6.7
		c-0.1-18.9-0.2-37.9-0.2-56.8c0-1.3,0-2.5,0-4c-9.9,3.5-19.7,6.4-30.2,7.1c0,0.8,0,1.5,0,2.2c-0.1,19.3-0.2,38.5-0.3,57.8
		c0,1.4-0.2,2.3-1.9,2.4c-5.9,0.3-11.7,1-17.6,1.1c-13.6,0.3-27-0.9-40.4-3.6C40,109,31.7,106.8,24.7,100.2z M145.2,28.9
		c-1.2,0.5-2.1,1-3.1,1.3c-4.5,1.8-8.9,4.2-13.6,5.4c-15.2,3.9-30.8,5.1-46.5,4.7c-19-0.5-37.8-1.7-55.2-10.7
		c-0.5-0.3-1.1-0.4-1.7-0.6c-0.1,0.2-0.2,0.3-0.3,0.5c1,1.2,1.8,2.8,3.1,3.6c2.9,1.8,5.8,3.7,9,4.8c8.9,3.2,18.2,4.8,27.6,5.6
		c18.8,1.5,37.6,1.3,56.2-2.1c6.8-1.2,13.3-3.3,19.4-6.5C142.5,33.7,144.4,32.1,145.2,28.9z M122.2,29.6c2.2-0.5,5.5-0.6,8.2-2
		c4.6-2.5,4.2-4,0.3-6.9c-0.5-0.4-1.1-0.7-1.7-0.9c-6.2-2.3-12.3-2-18.3,0.5c-1.7,0.7-3.3,1.8-3.2,3.9c0.1,2.1,1.9,2.9,3.6,3.6
		c0.5,0.2,1.1,0.4,1.7,0.5C115.5,28.7,118.3,29.1,122.2,29.6z"/>
</g>
</svg>
